<?xml version="1.0" standalone="no"?>
<!DOCTYPE svg PUBLIC "-//W3C//DTD SVG 20010904//EN"
 "http://www.w3.org/TR/2001/REC-SVG-20010904/DTD/svg10.dtd">
<svg version="1.0" xmlns="http://www.w3.org/2000/svg"
 width="640.000000pt" height="640.000000pt" viewBox="0 0 640.000000 640.000000"
 preserveAspectRatio="xMidYMid meet">
<metadata>
Created by potrace 1.14, written by Peter Selinger 2001-2017
</metadata>
<g transform="translate(0.000000,640.000000) scale(0.100000,-0.100000)"
fill="#000000" stroke="none">
<path d="M3108 5435 c-1 -1 -19 -5 -38 -8 -40 -6 -108 -28 -270 -87 -63 -23
-171 -62 -240 -86 -166 -60 -509 -184 -540 -197 -14 -6 -31 -11 -37 -13 -7 -1
-50 -17 -95 -34 -46 -17 -90 -33 -98 -35 -20 -6 -200 -70 -280 -102 -36 -14
-72 -26 -80 -28 -8 -2 -53 -18 -100 -35 -47 -18 -173 -63 -280 -102 -107 -38
-244 -88 -305 -110 -60 -22 -141 -51 -180 -64 -38 -14 -79 -29 -90 -33 -20 -9
-175 -65 -185 -67 -3 0 -18 -6 -35 -13 -16 -6 -43 -16 -60 -22 -128 -47 -187
-117 -191 -227 -3 -71 18 -130 63 -175 45 -47 41 -45 381 -168 263 -95 303
-115 272 -134 -20 -13 -156 -309 -164 -358 -1 -6 -5 -18 -9 -24 -5 -7 -6 -13
-3 -13 3 0 1 -11 -4 -25 -9 -24 -16 -53 -25 -100 -2 -11 -6 -29 -8 -40 -16
-71 -27 -209 -26 -325 0 -41 0 -82 0 -90 1 -257 -14 -392 -65 -565 -2 -5 -6
-23 -11 -40 -17 -65 -105 -276 -159 -380 -76 -148 -96 -183 -174 -300 -64 -94
-67 -103 -67 -157 1 -100 42 -136 200 -174 61 -15 117 -29 125 -32 27 -9 35
-11 70 -17 19 -3 46 -10 60 -15 14 -5 36 -12 50 -14 14 -3 50 -12 82 -20 64
-17 91 -23 167 -38 67 -13 121 3 158 46 30 36 39 57 47 116 3 25 8 57 11 72 3
16 7 40 10 55 15 86 27 463 15 488 -2 5 -5 30 -6 55 -3 47 -20 186 -29 230 -3
14 -8 39 -10 55 -3 17 -8 37 -10 45 -2 8 -6 26 -9 40 -16 89 -98 352 -118 377
-10 12 -17 75 -18 158 -2 80 8 307 15 340 16 84 29 137 53 210 14 44 27 82 27
85 3 16 88 176 121 226 54 82 60 89 144 175 123 125 262 213 455 288 44 18 89
36 100 41 50 23 282 110 293 110 7 0 12 5 12 10 0 6 3 9 8 8 6 -2 149 50 237
87 35 15 144 58 570 226 261 103 319 122 367 123 61 1 93 -15 131 -66 42 -56
22 -172 -35 -212 -12 -9 -92 -43 -177 -76 -86 -34 -165 -65 -176 -70 -11 -5
-85 -35 -165 -65 -185 -72 -319 -124 -345 -136 -11 -4 -45 -18 -75 -29 -30
-11 -64 -24 -75 -29 -46 -20 -181 -74 -190 -76 -11 -2 -17 -5 -142 -56 -51
-21 -93 -35 -93 -32 0 3 -6 1 -12 -4 -7 -6 -38 -20 -68 -31 -30 -11 -77 -30
-105 -43 -27 -12 -52 -23 -55 -24 -33 -8 -167 -101 -222 -154 -27 -25 -38 -48
-18 -36 6 3 10 2 10 -3 0 -5 6 -9 13 -9 10 0 476 -165 587 -208 52 -20 118
-43 400 -145 140 -50 262 -94 270 -97 8 -3 20 -7 25 -9 6 -1 78 -28 161 -58
83 -30 163 -57 178 -60 14 -3 36 -8 48 -12 33 -10 188 -11 238 -2 25 5 55 11
68 14 13 2 53 16 90 30 37 14 74 27 82 29 8 2 16 4 18 5 1 2 5 3 10 4 4 1 32
11 62 23 30 11 120 44 200 73 250 89 424 152 440 158 8 3 18 6 23 7 4 2 9 4
12 5 3 1 8 3 13 5 4 1 14 5 22 8 8 4 67 25 130 47 63 23 183 65 265 95 83 29
206 74 275 98 69 25 142 52 163 60 20 9 38 16 40 16 1 0 16 5 32 11 17 7 37
13 45 15 8 2 78 27 155 55 77 29 145 53 150 55 6 1 24 8 40 14 17 7 48 19 70
26 22 7 117 41 210 75 94 34 175 63 180 64 6 2 21 8 35 13 14 6 48 18 75 27
61 21 84 36 124 78 82 87 77 239 -9 326 -35 35 -60 48 -155 81 -33 12 -69 26
-80 30 -11 5 -56 22 -100 37 -44 15 -91 32 -105 37 -14 6 -29 11 -35 13 -13 3
-124 43 -150 54 -17 7 -214 78 -490 177 -38 13 -83 30 -100 36 -16 7 -32 12
-35 13 -3 0 -12 4 -20 7 -14 6 -57 22 -370 133 -69 24 -132 47 -140 51 -8 3
-19 7 -25 9 -14 4 -188 68 -270 98 -38 15 -77 29 -85 31 -19 5 -306 109 -388
141 -34 13 -67 24 -73 24 -6 0 -25 6 -42 14 -46 21 -247 93 -298 107 -39 10
-252 22 -261 14z"/>
<path d="M1429 3103 c0 -16 -2 -36 -4 -46 -2 -10 -6 -49 -10 -85 -3 -37 -7
-80 -9 -97 -2 -16 -7 -63 -11 -104 -4 -41 -8 -83 -10 -94 -2 -10 -7 -48 -10
-85 -9 -109 -15 -165 -20 -202 -2 -19 -7 -64 -10 -100 -3 -36 -8 -76 -10 -90
-2 -14 -7 -50 -9 -80 -7 -68 -18 -176 -32 -305 -12 -106 -9 -207 7 -235 24
-42 53 -84 79 -114 51 -58 188 -150 314 -211 112 -54 331 -137 392 -149 11 -2
39 -10 64 -17 25 -7 51 -14 59 -15 7 -1 34 -8 60 -14 73 -17 149 -31 241 -46
19 -3 46 -7 60 -10 14 -2 45 -6 70 -9 25 -3 61 -7 80 -10 52 -6 194 -17 280
-20 41 -2 77 -4 80 -5 3 -1 10 -1 15 0 6 1 64 2 130 1 148 -2 130 -2 195 3 30
3 96 8 145 11 50 3 97 7 105 10 8 2 42 6 75 9 33 4 71 8 85 10 14 3 42 7 63
10 20 3 54 9 75 12 20 4 46 8 57 10 11 1 20 3 20 4 0 1 7 3 15 5 8 2 26 6 40
9 25 5 30 6 110 25 25 6 77 20 115 31 39 12 77 23 85 25 42 10 197 72 288 115
133 64 231 129 307 205 81 82 110 141 109 225 0 59 -9 175 -19 240 -2 14 -6
57 -10 95 -3 39 -7 77 -10 85 -2 8 -7 51 -10 95 -3 44 -8 94 -10 110 -2 17 -7
55 -10 85 -3 30 -7 69 -9 85 -2 17 -7 62 -11 100 -3 39 -8 90 -11 115 -2 25
-7 68 -10 95 -3 28 -7 64 -9 80 -5 51 -17 169 -20 195 -2 14 -4 35 -4 48 -1
19 -5 21 -28 16 -16 -4 -41 -12 -58 -19 -16 -7 -57 -22 -90 -34 -58 -19 -355
-126 -385 -138 -8 -4 -17 -7 -20 -8 -3 -1 -12 -4 -20 -7 -37 -14 -145 -53
-150 -54 -3 0 -12 -4 -20 -7 -8 -4 -55 -20 -105 -37 -49 -17 -99 -35 -110 -40
-20 -10 -241 -90 -260 -94 -5 -2 -22 -8 -36 -14 -54 -22 -205 -74 -228 -78
-14 -3 -28 -7 -32 -10 -39 -24 -345 -24 -448 0 -62 14 -329 106 -616 213 -38
14 -95 34 -125 45 -30 11 -68 25 -85 31 -16 7 -32 12 -35 13 -3 0 -12 4 -20 7
-8 4 -49 18 -90 32 -41 15 -82 29 -90 32 -8 4 -17 7 -20 7 -3 1 -18 7 -35 13
-36 14 -256 94 -270 98 -5 1 -14 3 -20 4 -5 1 -20 9 -32 17 -13 8 -23 12 -23
9 0 -3 -16 2 -36 10 -49 20 -54 19 -55 -12z"/>
</g>
</svg>
